<?xml version="1.0" encoding="utf-8"?>
<!-- Generator: Adobe Illustrator 15.1.0, SVG Export Plug-In . SVG Version: 6.00 Build 0)  -->
<!DOCTYPE svg PUBLIC "-//W3C//DTD SVG 1.1//EN" "http://www.w3.org/Graphics/SVG/1.1/DTD/svg11.dtd">
<svg version="1.1" id="Layer_1" xmlns="http://www.w3.org/2000/svg" xmlns:xlink="http://www.w3.org/1999/xlink" x="0px" y="0px"
	 width="489px" height="80px" viewBox="0 0 489 80" enable-background="new 0 0 489 80" xml:space="preserve">
<g>
	<g>
		<path fill-rule="evenodd" clip-rule="evenodd" d="M476.697,1.099c1.415,1.94,0.428,6.284,0.72,9.351
			c1.663,1.693,6.774-0.061,8.632,1.438c1.993,2.929,1.993,10.021,0,12.95c-2.876,0-5.757,0-8.632,0
			c0.196,6.036-0.56,13.027,0.719,17.984c1.758,1.837,6.08,1.113,8.631,2.157c0.918,4.305,0.918,9.364,0,13.667
			c-21.422,4.546-29.074-10.662-25.896-33.089c-0.997-1.881-6.105,0.351-7.194-1.44c0-3.836,0-7.672,0-11.508
			c1.635-1.245,4.02-1.737,7.194-1.439c0-3.118,0-6.234,0-9.352C464.812,0.244,471.585,1.501,476.697,1.099z"/>
		<path fill-rule="evenodd" clip-rule="evenodd" d="M45.802,25.557c-3.385,2.61-8.449,3.539-12.949,5.035
			c-4.867-1.557-3.12-7.065-8.632-6.475c-7.06,0.758-4.767,14.317-2.876,20.862c6.803,1.53,7.42-3.129,10.07-5.755
			c5.627,0.847,11.432,1.518,14.387,5.035C44.082,61.1,16.554,64.554,6.957,53.611c-6.854-7.815-5.894-31.514,0.719-38.126
			C17.21,5.952,45.813,8.998,45.802,25.557z"/>
		<path fill-rule="evenodd" clip-rule="evenodd" d="M64.504,11.169c11.51-2.398,22.441,0.349,26.617,6.474
			c7.354,10.786,3.464,32.753-4.316,38.126c-8.01,5.53-26.166,5.375-33.09-2.878c-5.724-6.821-5.529-25.204-2.877-31.651
			C53.214,15.461,57.773,12.572,64.504,11.169z M67.382,26.995c-1.257,3.909-1.115,12.613,0,16.544c2.154,2.099,7.022,1.591,9.352,0
			c1.041-4.357,1.273-12.947,0-17.265C75.482,24.428,67.578,23.552,67.382,26.995z"/>
		<path fill-rule="evenodd" clip-rule="evenodd" d="M142.196,57.208c-3.766,1.173-12.062,1.173-15.827,0
			c-2.021-8.771,0.583-22.164-1.439-30.934c-1.544-1.332-5.268-0.485-7.912-0.718c-2.136,8.894,0.69,22.75-1.439,31.651
			c-3.539,1.171-11.567,1.171-15.106,0c-1.216-12.517-1.166-29.917,0-42.443c8.95-3.749,23.837-7.162,33.091-2.878
			C147.022,18.122,140.782,38.935,142.196,57.208z"/>
		<path fill-rule="evenodd" clip-rule="evenodd" d="M256.573,55.769c-9.76,3.942-33.759,7.194-39.563-2.158
			c-3.975-6.401-2.26-17.816,3.597-21.581c5.186-3.336,13.272-2.401,20.142-2.159c1.697-11.432-9.831-6.257-12.949-2.158
			c-4.216-1.539-9.2-2.31-11.509-5.754c2.479-13.331,28.166-15.567,36.688-7.194C261.616,23.257,257.619,42.62,256.573,55.769z
			 M231.396,45.697c0.56,0.159,0.836,0.603,0.72,1.44c2.159,0.957,5.503,0.73,8.632,0.719c0-2.398,0-4.796,0-7.196
			C235.814,40.525,230.763,40.269,231.396,45.697z"/>
		<path fill-rule="evenodd" clip-rule="evenodd" d="M356.563,38.504c-7.777,1.574-18.388,0.316-27.336,0.719
			c0.939,2.419,0.733,5.981,2.877,7.194c6.67,1.152,9.342-1.69,12.23-4.317c4.856,0.658,8.721,2.308,11.51,5.037
			c-1.805,14.844-28.648,15.179-37.406,7.193c-5.244-4.782-8.595-22.627-4.317-33.091c5.396-13.202,30.637-15.073,39.564-4.316
			C357.656,21.705,359.353,29.699,356.563,38.504z M329.947,28.435c3.597,0,7.193,0,10.791,0c0.417-2.337-0.49-3.348-0.721-5.037
			C336.015,19.792,327.218,23.187,329.947,28.435z"/>
		<path fill-rule="evenodd" clip-rule="evenodd" d="M402.603,55.769c-9.76,3.942-33.759,7.194-39.564-2.158
			c-3.975-6.401-2.259-17.816,3.598-21.581c5.186-3.336,13.272-2.401,20.14-2.159c1.7-11.432-9.828-6.257-12.946-2.158
			c-4.217-1.539-9.2-2.31-11.51-5.754c2.478-13.331,28.165-15.567,36.688-7.194C407.645,23.257,403.65,42.62,402.603,55.769z
			 M377.424,45.697c0.562,0.159,0.838,0.603,0.72,1.44c2.161,0.957,5.505,0.73,8.632,0.719c0-2.398,0-4.796,0-7.196
			C381.845,40.525,376.791,40.269,377.424,45.697z"/>
		<path fill-rule="evenodd" clip-rule="evenodd" d="M450.081,21.959c-1.338,4.418-7.509,4-10.791,6.476
			c-2.942-2.665-10.054-6.896-15.107-2.878c1.71,4.917,7.183,3.1,10.07,3.596c6.825,1.173,15.859,3.195,17.267,10.791
			c4.021,21.707-31.363,24.598-40.284,12.948c-6.384-8.335,2.216-10.257,10.07-12.23c1.22,4.53,12.355,7.846,15.107,2.16
			c-1.61-4.373-6.994-2.392-10.073-2.878c-6.81-1.078-14.363-2.945-16.544-8.632C400.08,5.962,447.692,3.899,450.081,21.959z"/>
		<path fill-rule="evenodd" clip-rule="evenodd" d="M162.338,12.608c2.64,8.149,3.896,17.683,4.316,28.053
			c1.565-9.942,2.486-20.531,5.754-28.774c4.509-0.721,11.672-1.589,15.106,0.721c2.588,8.441,4.921,17.14,5.037,28.053
			c1.578-9.689,1.934-20.605,5.034-28.774c4.613-0.825,11.296-1.214,15.827,0c-1.22,8.095-3.706,15.847-5.756,23.739
			c-1.977,7.607-3.456,15.821-7.192,22.3c-4.797,0-9.593,0-14.387,0c-4.107-6.923-4.726-17.338-6.476-26.616
			c-2.301,8.969-2.583,19.956-7.194,26.616c-4.556,0-9.112,0-13.667,0c-5.821-13.601-8.823-30.023-12.948-45.318
			C149.192,10.271,158.856,10.625,162.338,12.608z"/>
		<path fill-rule="evenodd" clip-rule="evenodd" d="M280.311,11.887c2.038,7.794-0.612,20.278,1.441,28.056
			c0.977,2.139,4.97,1.263,7.913,1.439c2.133-8.18-0.687-21.309,1.438-29.496c3.824-1.12,11.278-1.12,15.104,0
			c-1.842,20.213,7.828,53.444-6.474,63.305c-9.832,6.78-30.878,4.546-35.249-8.632c3.169-2.827,7.632-4.36,11.511-6.474
			c3.647-0.087,5.768,5.832,10.07,5.035c2.736-0.507,4.695-2.647,4.316-7.913c-10.565-1.562-19.103-0.371-23.739-7.913
			c-5.368-8.734-2.234-23.602-2.158-36.687C267.685,10.17,276.015,11.083,280.311,11.887z"/>
	</g>
</g>
</svg>
